<mxfile host="app.diagrams.net" modified="2023-03-20T13:08:21.109Z" agent="5.0 (Windows)" etag="f6VaujU9bU6cUA-1KRs4" version="21.0.6" type="github">
  <diagram name="Page-1" id="fAINEygDaWVcv_N5_IjY">
    <mxGraphModel dx="989" dy="548" grid="1" gridSize="10" guides="1" tooltips="1" connect="1" arrows="1" fold="1" page="1" pageScale="1" pageWidth="827" pageHeight="1169" math="0" shadow="0">
      <root>
        <mxCell id="0" />
        <mxCell id="1" parent="0" />
        <mxCell id="KYYR0FkDAw76e0KfDm-P-86" value="" style="rounded=1;whiteSpace=wrap;html=1;fillColor=none;strokeColor=#8000ff;" parent="1" vertex="1">
          <mxGeometry x="731" y="906" width="1020" height="450" as="geometry" />
        </mxCell>
        <mxCell id="KYYR0FkDAw76e0KfDm-P-9" style="edgeStyle=orthogonalEdgeStyle;rounded=0;orthogonalLoop=1;jettySize=auto;html=1;" parent="1" source="KYYR0FkDAw76e0KfDm-P-1" target="KYYR0FkDAw76e0KfDm-P-8" edge="1">
          <mxGeometry relative="1" as="geometry" />
        </mxCell>
        <mxCell id="KYYR0FkDAw76e0KfDm-P-1" value="Actor" style="shape=umlActor;verticalLabelPosition=bottom;verticalAlign=top;html=1;outlineConnect=0;overflow=visible;noLabel=1;" parent="1" vertex="1">
          <mxGeometry x="89" y="280" width="30" height="60" as="geometry" />
        </mxCell>
        <mxCell id="KYYR0FkDAw76e0KfDm-P-2" value="Utilisateur" style="text;html=1;strokeColor=none;fillColor=none;align=center;verticalAlign=middle;whiteSpace=wrap;rounded=0;" parent="1" vertex="1">
          <mxGeometry x="79" y="340" width="60" height="30" as="geometry" />
        </mxCell>
        <mxCell id="KYYR0FkDAw76e0KfDm-P-3" value="" style="edgeStyle=orthogonalEdgeStyle;rounded=0;orthogonalLoop=1;jettySize=auto;html=1;dashed=1;" parent="1" source="KYYR0FkDAw76e0KfDm-P-4" edge="1">
          <mxGeometry relative="1" as="geometry">
            <mxPoint x="85" y="425" as="sourcePoint" />
            <mxPoint x="105" y="366" as="targetPoint" />
          </mxGeometry>
        </mxCell>
        <mxCell id="KYYR0FkDAw76e0KfDm-P-4" value="Élève" style="text;html=1;strokeColor=none;fillColor=none;align=center;verticalAlign=middle;whiteSpace=wrap;rounded=0;" parent="1" vertex="1">
          <mxGeometry x="39" y="409" width="46" height="30" as="geometry" />
        </mxCell>
        <mxCell id="KYYR0FkDAw76e0KfDm-P-5" value="" style="edgeStyle=orthogonalEdgeStyle;rounded=0;orthogonalLoop=1;jettySize=auto;html=1;dashed=1;exitX=0;exitY=0.5;exitDx=0;exitDy=0;" parent="1" source="KYYR0FkDAw76e0KfDm-P-6" edge="1">
          <mxGeometry relative="1" as="geometry">
            <mxPoint x="125" y="431" as="sourcePoint" />
            <mxPoint x="105" y="366" as="targetPoint" />
          </mxGeometry>
        </mxCell>
        <mxCell id="KYYR0FkDAw76e0KfDm-P-6" value="Bénévole" style="text;html=1;strokeColor=none;fillColor=none;align=center;verticalAlign=middle;whiteSpace=wrap;rounded=0;" parent="1" vertex="1">
          <mxGeometry x="125" y="409" width="64" height="30" as="geometry" />
        </mxCell>
        <mxCell id="KYYR0FkDAw76e0KfDm-P-8" value="&lt;div&gt;Consulter les listes&lt;/div&gt;&lt;div&gt;&amp;nbsp;de tâches&lt;/div&gt;" style="ellipse;whiteSpace=wrap;html=1;" parent="1" vertex="1">
          <mxGeometry x="280" y="284" width="120" height="52" as="geometry" />
        </mxCell>
        <mxCell id="KYYR0FkDAw76e0KfDm-P-15" value="" style="edgeStyle=orthogonalEdgeStyle;rounded=0;orthogonalLoop=1;jettySize=auto;html=1;dashed=1;" parent="1" source="KYYR0FkDAw76e0KfDm-P-10" target="KYYR0FkDAw76e0KfDm-P-14" edge="1">
          <mxGeometry relative="1" as="geometry">
            <Array as="points">
              <mxPoint x="681" y="310" />
              <mxPoint x="681" y="310" />
            </Array>
          </mxGeometry>
        </mxCell>
        <mxCell id="KYYR0FkDAw76e0KfDm-P-27" style="edgeStyle=orthogonalEdgeStyle;rounded=0;orthogonalLoop=1;jettySize=auto;html=1;entryX=1;entryY=0.5;entryDx=0;entryDy=0;dashed=1;" parent="1" source="KYYR0FkDAw76e0KfDm-P-10" target="KYYR0FkDAw76e0KfDm-P-8" edge="1">
          <mxGeometry relative="1" as="geometry" />
        </mxCell>
        <mxCell id="KYYR0FkDAw76e0KfDm-P-10" value="&lt;div&gt;Consulter une liste&lt;br&gt;&lt;/div&gt;&lt;div&gt;&amp;nbsp;de tâches&lt;/div&gt;" style="ellipse;whiteSpace=wrap;html=1;" parent="1" vertex="1">
          <mxGeometry x="521" y="284" width="120" height="52" as="geometry" />
        </mxCell>
        <mxCell id="KYYR0FkDAw76e0KfDm-P-43" style="edgeStyle=orthogonalEdgeStyle;rounded=0;orthogonalLoop=1;jettySize=auto;html=1;entryX=0.5;entryY=0;entryDx=0;entryDy=0;dashed=1;" parent="1" source="KYYR0FkDAw76e0KfDm-P-13" target="KYYR0FkDAw76e0KfDm-P-8" edge="1">
          <mxGeometry relative="1" as="geometry" />
        </mxCell>
        <mxCell id="KYYR0FkDAw76e0KfDm-P-45" value="" style="edgeStyle=orthogonalEdgeStyle;rounded=0;orthogonalLoop=1;jettySize=auto;html=1;dashed=1;" parent="1" source="KYYR0FkDAw76e0KfDm-P-13" target="KYYR0FkDAw76e0KfDm-P-44" edge="1">
          <mxGeometry relative="1" as="geometry" />
        </mxCell>
        <mxCell id="KYYR0FkDAw76e0KfDm-P-13" value="&lt;div&gt;Ajouter une liste&lt;/div&gt;&lt;div&gt;&amp;nbsp;de tâches&lt;/div&gt;" style="ellipse;whiteSpace=wrap;html=1;" parent="1" vertex="1">
          <mxGeometry x="520" y="130" width="120" height="52" as="geometry" />
        </mxCell>
        <mxCell id="KYYR0FkDAw76e0KfDm-P-14" value="Consulter les tâches" style="ellipse;whiteSpace=wrap;html=1;" parent="1" vertex="1">
          <mxGeometry x="761" y="284" width="120" height="52" as="geometry" />
        </mxCell>
        <mxCell id="KYYR0FkDAw76e0KfDm-P-19" value="" style="edgeStyle=orthogonalEdgeStyle;rounded=0;orthogonalLoop=1;jettySize=auto;html=1;dashed=1;" parent="1" source="KYYR0FkDAw76e0KfDm-P-16" target="KYYR0FkDAw76e0KfDm-P-18" edge="1">
          <mxGeometry relative="1" as="geometry" />
        </mxCell>
        <mxCell id="KYYR0FkDAw76e0KfDm-P-26" style="edgeStyle=orthogonalEdgeStyle;rounded=0;orthogonalLoop=1;jettySize=auto;html=1;dashed=1;" parent="1" source="KYYR0FkDAw76e0KfDm-P-16" target="KYYR0FkDAw76e0KfDm-P-10" edge="1">
          <mxGeometry relative="1" as="geometry" />
        </mxCell>
        <mxCell id="KYYR0FkDAw76e0KfDm-P-16" value="Ajouter une tâche" style="ellipse;whiteSpace=wrap;html=1;" parent="1" vertex="1">
          <mxGeometry x="761" y="439" width="120" height="52" as="geometry" />
        </mxCell>
        <mxCell id="KYYR0FkDAw76e0KfDm-P-21" value="" style="edgeStyle=orthogonalEdgeStyle;rounded=0;orthogonalLoop=1;jettySize=auto;html=1;dashed=1;" parent="1" source="KYYR0FkDAw76e0KfDm-P-18" target="KYYR0FkDAw76e0KfDm-P-20" edge="1">
          <mxGeometry relative="1" as="geometry" />
        </mxCell>
        <mxCell id="KYYR0FkDAw76e0KfDm-P-35" style="edgeStyle=orthogonalEdgeStyle;rounded=0;orthogonalLoop=1;jettySize=auto;html=1;entryX=0;entryY=0.5;entryDx=0;entryDy=0;dashed=1;" parent="1" source="KYYR0FkDAw76e0KfDm-P-18" target="KYYR0FkDAw76e0KfDm-P-23" edge="1">
          <mxGeometry relative="1" as="geometry" />
        </mxCell>
        <mxCell id="KYYR0FkDAw76e0KfDm-P-18" value="Ajouter" style="ellipse;whiteSpace=wrap;html=1;" parent="1" vertex="1">
          <mxGeometry x="1161" y="439" width="120" height="52" as="geometry" />
        </mxCell>
        <mxCell id="KYYR0FkDAw76e0KfDm-P-39" style="edgeStyle=orthogonalEdgeStyle;rounded=0;orthogonalLoop=1;jettySize=auto;html=1;entryX=1;entryY=0.5;entryDx=0;entryDy=0;dashed=1;exitX=0.5;exitY=0;exitDx=0;exitDy=0;" parent="1" source="KYYR0FkDAw76e0KfDm-P-20" target="KYYR0FkDAw76e0KfDm-P-32" edge="1">
          <mxGeometry relative="1" as="geometry">
            <mxPoint x="1421" y="430" as="sourcePoint" />
          </mxGeometry>
        </mxCell>
        <mxCell id="KYYR0FkDAw76e0KfDm-P-20" value="Nom" style="ellipse;whiteSpace=wrap;html=1;" parent="1" vertex="1">
          <mxGeometry x="1361" y="439" width="120" height="52" as="geometry" />
        </mxCell>
        <mxCell id="KYYR0FkDAw76e0KfDm-P-36" style="edgeStyle=orthogonalEdgeStyle;rounded=0;orthogonalLoop=1;jettySize=auto;html=1;entryX=1;entryY=1;entryDx=0;entryDy=0;dashed=1;" parent="1" source="KYYR0FkDAw76e0KfDm-P-22" target="KYYR0FkDAw76e0KfDm-P-18" edge="1">
          <mxGeometry relative="1" as="geometry" />
        </mxCell>
        <mxCell id="KYYR0FkDAw76e0KfDm-P-40" style="edgeStyle=orthogonalEdgeStyle;rounded=0;orthogonalLoop=1;jettySize=auto;html=1;entryX=1;entryY=0.5;entryDx=0;entryDy=0;dashed=1;" parent="1" source="KYYR0FkDAw76e0KfDm-P-22" target="KYYR0FkDAw76e0KfDm-P-32" edge="1">
          <mxGeometry relative="1" as="geometry">
            <Array as="points">
              <mxPoint x="1511" y="576" />
              <mxPoint x="1511" y="310" />
            </Array>
          </mxGeometry>
        </mxCell>
        <mxCell id="KYYR0FkDAw76e0KfDm-P-22" value="Description" style="ellipse;whiteSpace=wrap;html=1;" parent="1" vertex="1">
          <mxGeometry x="1361" y="550" width="120" height="52" as="geometry" />
        </mxCell>
        <mxCell id="KYYR0FkDAw76e0KfDm-P-41" style="edgeStyle=orthogonalEdgeStyle;rounded=0;orthogonalLoop=1;jettySize=auto;html=1;entryX=1;entryY=0.5;entryDx=0;entryDy=0;dashed=1;" parent="1" source="KYYR0FkDAw76e0KfDm-P-23" target="KYYR0FkDAw76e0KfDm-P-32" edge="1">
          <mxGeometry relative="1" as="geometry">
            <Array as="points">
              <mxPoint x="1511" y="696" />
              <mxPoint x="1511" y="310" />
            </Array>
          </mxGeometry>
        </mxCell>
        <mxCell id="KYYR0FkDAw76e0KfDm-P-23" value="Status" style="ellipse;whiteSpace=wrap;html=1;" parent="1" vertex="1">
          <mxGeometry x="1361" y="670" width="120" height="52" as="geometry" />
        </mxCell>
        <mxCell id="KYYR0FkDAw76e0KfDm-P-25" style="edgeStyle=orthogonalEdgeStyle;rounded=0;orthogonalLoop=1;jettySize=auto;html=1;entryX=1;entryY=0.5;entryDx=0;entryDy=0;dashed=1;" parent="1" source="KYYR0FkDAw76e0KfDm-P-24" target="KYYR0FkDAw76e0KfDm-P-14" edge="1">
          <mxGeometry relative="1" as="geometry" />
        </mxCell>
        <mxCell id="KYYR0FkDAw76e0KfDm-P-24" value="Supprimer une tâche" style="ellipse;whiteSpace=wrap;html=1;" parent="1" vertex="1">
          <mxGeometry x="961" y="170" width="120" height="52" as="geometry" />
        </mxCell>
        <mxCell id="KYYR0FkDAw76e0KfDm-P-29" style="edgeStyle=orthogonalEdgeStyle;rounded=0;orthogonalLoop=1;jettySize=auto;html=1;entryX=1;entryY=0.5;entryDx=0;entryDy=0;dashed=1;" parent="1" source="KYYR0FkDAw76e0KfDm-P-28" target="KYYR0FkDAw76e0KfDm-P-8" edge="1">
          <mxGeometry relative="1" as="geometry" />
        </mxCell>
        <mxCell id="KYYR0FkDAw76e0KfDm-P-28" value="&lt;div&gt;Supprimer une liste&lt;br&gt;&lt;/div&gt;&lt;div&gt;&amp;nbsp;de tâches&lt;/div&gt;" style="ellipse;whiteSpace=wrap;html=1;" parent="1" vertex="1">
          <mxGeometry x="521" y="618" width="120" height="52" as="geometry" />
        </mxCell>
        <mxCell id="KYYR0FkDAw76e0KfDm-P-31" style="edgeStyle=orthogonalEdgeStyle;rounded=0;orthogonalLoop=1;jettySize=auto;html=1;entryX=1;entryY=0.5;entryDx=0;entryDy=0;dashed=1;" parent="1" source="KYYR0FkDAw76e0KfDm-P-30" target="KYYR0FkDAw76e0KfDm-P-14" edge="1">
          <mxGeometry relative="1" as="geometry" />
        </mxCell>
        <mxCell id="KYYR0FkDAw76e0KfDm-P-33" value="" style="edgeStyle=orthogonalEdgeStyle;rounded=0;orthogonalLoop=1;jettySize=auto;html=1;dashed=1;" parent="1" source="KYYR0FkDAw76e0KfDm-P-30" target="KYYR0FkDAw76e0KfDm-P-32" edge="1">
          <mxGeometry relative="1" as="geometry" />
        </mxCell>
        <mxCell id="KYYR0FkDAw76e0KfDm-P-30" value="modifier une tâche" style="ellipse;whiteSpace=wrap;html=1;" parent="1" vertex="1">
          <mxGeometry x="961" y="284" width="120" height="52" as="geometry" />
        </mxCell>
        <mxCell id="KYYR0FkDAw76e0KfDm-P-32" value="modifier" style="ellipse;whiteSpace=wrap;html=1;" parent="1" vertex="1">
          <mxGeometry x="1161" y="284" width="120" height="52" as="geometry" />
        </mxCell>
        <mxCell id="KYYR0FkDAw76e0KfDm-P-46" style="edgeStyle=orthogonalEdgeStyle;rounded=0;orthogonalLoop=1;jettySize=auto;html=1;entryX=0.5;entryY=0;entryDx=0;entryDy=0;dashed=1;" parent="1" target="KYYR0FkDAw76e0KfDm-P-10" edge="1">
          <mxGeometry relative="1" as="geometry">
            <mxPoint x="781" y="182" as="sourcePoint" />
            <Array as="points">
              <mxPoint x="781" y="220" />
              <mxPoint x="581" y="220" />
            </Array>
          </mxGeometry>
        </mxCell>
        <mxCell id="KYYR0FkDAw76e0KfDm-P-44" value="&lt;div&gt;Nommer la liste&lt;/div&gt;&lt;div&gt;&amp;nbsp;des tâches&lt;/div&gt;" style="ellipse;whiteSpace=wrap;html=1;" parent="1" vertex="1">
          <mxGeometry x="720" y="130" width="120" height="52" as="geometry" />
        </mxCell>
        <mxCell id="KYYR0FkDAw76e0KfDm-P-54" style="edgeStyle=orthogonalEdgeStyle;rounded=0;orthogonalLoop=1;jettySize=auto;html=1;dashed=1;entryX=0;entryY=0.5;entryDx=0;entryDy=0;" parent="1" source="KYYR0FkDAw76e0KfDm-P-48" target="KYYR0FkDAw76e0KfDm-P-53" edge="1">
          <mxGeometry relative="1" as="geometry" />
        </mxCell>
        <mxCell id="KYYR0FkDAw76e0KfDm-P-61" style="edgeStyle=orthogonalEdgeStyle;rounded=0;orthogonalLoop=1;jettySize=auto;html=1;entryX=1;entryY=0.5;entryDx=0;entryDy=0;dashed=1;" parent="1" source="KYYR0FkDAw76e0KfDm-P-48" target="KYYR0FkDAw76e0KfDm-P-56" edge="1">
          <mxGeometry relative="1" as="geometry" />
        </mxCell>
        <mxCell id="KYYR0FkDAw76e0KfDm-P-48" value="Attribuer à un élève" style="ellipse;whiteSpace=wrap;html=1;" parent="1" vertex="1">
          <mxGeometry x="1000" y="1003" width="120" height="52" as="geometry" />
        </mxCell>
        <mxCell id="KYYR0FkDAw76e0KfDm-P-55" style="edgeStyle=orthogonalEdgeStyle;rounded=0;orthogonalLoop=1;jettySize=auto;html=1;entryX=0;entryY=0.5;entryDx=0;entryDy=0;dashed=1;" parent="1" source="KYYR0FkDAw76e0KfDm-P-52" target="KYYR0FkDAw76e0KfDm-P-53" edge="1">
          <mxGeometry relative="1" as="geometry" />
        </mxCell>
        <mxCell id="KYYR0FkDAw76e0KfDm-P-62" style="edgeStyle=orthogonalEdgeStyle;rounded=0;orthogonalLoop=1;jettySize=auto;html=1;entryX=1;entryY=0.5;entryDx=0;entryDy=0;dashed=1;" parent="1" source="KYYR0FkDAw76e0KfDm-P-52" target="KYYR0FkDAw76e0KfDm-P-56" edge="1">
          <mxGeometry relative="1" as="geometry" />
        </mxCell>
        <mxCell id="KYYR0FkDAw76e0KfDm-P-52" value="&lt;div&gt;Retirer un élève&lt;/div&gt;" style="ellipse;whiteSpace=wrap;html=1;" parent="1" vertex="1">
          <mxGeometry x="1000" y="1143" width="120" height="52" as="geometry" />
        </mxCell>
        <mxCell id="KYYR0FkDAw76e0KfDm-P-77" value="" style="edgeStyle=orthogonalEdgeStyle;rounded=0;orthogonalLoop=1;jettySize=auto;html=1;dashed=1;" parent="1" source="KYYR0FkDAw76e0KfDm-P-53" target="KYYR0FkDAw76e0KfDm-P-76" edge="1">
          <mxGeometry relative="1" as="geometry" />
        </mxCell>
        <mxCell id="KYYR0FkDAw76e0KfDm-P-53" value="Choisis un élève" style="ellipse;whiteSpace=wrap;html=1;" parent="1" vertex="1">
          <mxGeometry x="1200" y="1067" width="120" height="52" as="geometry" />
        </mxCell>
        <mxCell id="KYYR0FkDAw76e0KfDm-P-60" style="edgeStyle=orthogonalEdgeStyle;rounded=0;orthogonalLoop=1;jettySize=auto;html=1;entryX=0.5;entryY=1;entryDx=0;entryDy=0;dashed=1;exitX=0.5;exitY=0;exitDx=0;exitDy=0;" parent="1" source="KYYR0FkDAw76e0KfDm-P-56" target="KYYR0FkDAw76e0KfDm-P-10" edge="1">
          <mxGeometry relative="1" as="geometry" />
        </mxCell>
        <mxCell id="KYYR0FkDAw76e0KfDm-P-56" value="Partager une tâche" style="ellipse;whiteSpace=wrap;html=1;" parent="1" vertex="1">
          <mxGeometry x="761" y="1063" width="120" height="52" as="geometry" />
        </mxCell>
        <mxCell id="KYYR0FkDAw76e0KfDm-P-67" value="" style="endArrow=none;html=1;rounded=0;dashed=1;" parent="1" edge="1">
          <mxGeometry width="50" height="50" relative="1" as="geometry">
            <mxPoint x="1060" y="935" as="sourcePoint" />
            <mxPoint x="1264" y="935" as="targetPoint" />
          </mxGeometry>
        </mxCell>
        <mxCell id="KYYR0FkDAw76e0KfDm-P-74" value="" style="endArrow=none;html=1;rounded=0;dashed=1;exitX=0.5;exitY=0;exitDx=0;exitDy=0;" parent="1" source="KYYR0FkDAw76e0KfDm-P-48" edge="1">
          <mxGeometry width="50" height="50" relative="1" as="geometry">
            <mxPoint x="920" y="1055" as="sourcePoint" />
            <mxPoint x="1060" y="935" as="targetPoint" />
          </mxGeometry>
        </mxCell>
        <mxCell id="KYYR0FkDAw76e0KfDm-P-76" value="Attribution des droits" style="ellipse;whiteSpace=wrap;html=1;" parent="1" vertex="1">
          <mxGeometry x="1400" y="1067" width="120" height="52" as="geometry" />
        </mxCell>
        <mxCell id="KYYR0FkDAw76e0KfDm-P-78" value="Modification" style="ellipse;whiteSpace=wrap;html=1;" parent="1" vertex="1">
          <mxGeometry x="1600" y="1067" width="120" height="52" as="geometry" />
        </mxCell>
        <mxCell id="KYYR0FkDAw76e0KfDm-P-83" style="edgeStyle=orthogonalEdgeStyle;rounded=0;orthogonalLoop=1;jettySize=auto;html=1;entryX=1;entryY=0.5;entryDx=0;entryDy=0;dashed=1;" parent="1" source="KYYR0FkDAw76e0KfDm-P-80" target="KYYR0FkDAw76e0KfDm-P-76" edge="1">
          <mxGeometry relative="1" as="geometry" />
        </mxCell>
        <mxCell id="KYYR0FkDAw76e0KfDm-P-80" value="Lecture" style="ellipse;whiteSpace=wrap;html=1;" parent="1" vertex="1">
          <mxGeometry x="1600" y="967" width="120" height="52" as="geometry" />
        </mxCell>
        <mxCell id="KYYR0FkDAw76e0KfDm-P-84" style="edgeStyle=orthogonalEdgeStyle;rounded=0;orthogonalLoop=1;jettySize=auto;html=1;entryX=1;entryY=0.5;entryDx=0;entryDy=0;dashed=1;" parent="1" source="KYYR0FkDAw76e0KfDm-P-81" target="KYYR0FkDAw76e0KfDm-P-76" edge="1">
          <mxGeometry relative="1" as="geometry" />
        </mxCell>
        <mxCell id="KYYR0FkDAw76e0KfDm-P-81" value="Suppression" style="ellipse;whiteSpace=wrap;html=1;" parent="1" vertex="1">
          <mxGeometry x="1600" y="1165" width="120" height="52" as="geometry" />
        </mxCell>
        <mxCell id="KYYR0FkDAw76e0KfDm-P-85" value="" style="endArrow=none;html=1;rounded=0;dashed=1;exitX=0;exitY=0.5;exitDx=0;exitDy=0;" parent="1" source="KYYR0FkDAw76e0KfDm-P-78" edge="1">
          <mxGeometry width="50" height="50" relative="1" as="geometry">
            <mxPoint x="1490" y="1145" as="sourcePoint" />
            <mxPoint x="1560" y="1093" as="targetPoint" />
          </mxGeometry>
        </mxCell>
        <mxCell id="KYYR0FkDAw76e0KfDm-P-87" value="Bénévole uniquement" style="text;html=1;strokeColor=none;fillColor=none;align=center;verticalAlign=middle;whiteSpace=wrap;rounded=0;fontColor=#8000ff;" parent="1" vertex="1">
          <mxGeometry x="1580" y="876" width="130" height="30" as="geometry" />
        </mxCell>
        <mxCell id="4m4LYmhoTKOA_aB9rf4V-1" value="Date limite" style="ellipse;whiteSpace=wrap;html=1;" vertex="1" parent="1">
          <mxGeometry x="1361" y="790" width="120" height="52" as="geometry" />
        </mxCell>
        <mxCell id="4m4LYmhoTKOA_aB9rf4V-2" value="" style="endArrow=none;html=1;rounded=0;dashed=1;exitX=1;exitY=0.5;exitDx=0;exitDy=0;" edge="1" parent="1" source="4m4LYmhoTKOA_aB9rf4V-1">
          <mxGeometry width="50" height="50" relative="1" as="geometry">
            <mxPoint x="1470" y="720" as="sourcePoint" />
            <mxPoint x="1510" y="816" as="targetPoint" />
          </mxGeometry>
        </mxCell>
        <mxCell id="4m4LYmhoTKOA_aB9rf4V-3" value="" style="endArrow=none;html=1;rounded=0;dashed=1;" edge="1" parent="1">
          <mxGeometry width="50" height="50" relative="1" as="geometry">
            <mxPoint x="1510" y="816.919540229885" as="sourcePoint" />
            <mxPoint x="1511" y="693" as="targetPoint" />
          </mxGeometry>
        </mxCell>
        <mxCell id="4m4LYmhoTKOA_aB9rf4V-4" value="" style="endArrow=none;html=1;rounded=0;dashed=1;" edge="1" parent="1">
          <mxGeometry width="50" height="50" relative="1" as="geometry">
            <mxPoint x="1264" y="935.5862068965517" as="sourcePoint" />
            <mxPoint x="1264" y="577" as="targetPoint" />
          </mxGeometry>
        </mxCell>
        <mxCell id="4m4LYmhoTKOA_aB9rf4V-7" value="" style="endArrow=none;html=1;rounded=0;dashed=1;entryX=0;entryY=0.5;entryDx=0;entryDy=0;" edge="1" parent="1">
          <mxGeometry width="50" height="50" relative="1" as="geometry">
            <mxPoint x="1264" y="816" as="sourcePoint" />
            <mxPoint x="1360.9999999999995" y="816.0000000000001" as="targetPoint" />
          </mxGeometry>
        </mxCell>
      </root>
    </mxGraphModel>
  </diagram>
</mxfile>
